<mxfile host="Electron" modified="2024-04-12T01:42:58.291Z" agent="Mozilla/5.0 (Windows NT 10.0; Win64; x64) AppleWebKit/537.36 (KHTML, like Gecko) draw.io/22.1.2 Chrome/114.0.5735.289 Electron/25.9.4 Safari/537.36" etag="1bP1tI2WMHQAgCnrWoTt" version="22.1.2" type="device">
  <diagram name="Página-1" id="CQ0xYYLJBUeiyTAp5Cnv">
    <mxGraphModel dx="1434" dy="836" grid="1" gridSize="10" guides="1" tooltips="1" connect="1" arrows="1" fold="1" page="1" pageScale="1" pageWidth="827" pageHeight="1169" math="0" shadow="0">
      <root>
        <mxCell id="0" />
        <mxCell id="1" parent="0" />
        <mxCell id="TR7LabUpoKKQOMJsEYJS-56" value="Serviços Utilitário" style="rounded=0;whiteSpace=wrap;html=1;verticalAlign=top;" vertex="1" parent="1">
          <mxGeometry x="480" y="630" width="410" height="120" as="geometry" />
        </mxCell>
        <mxCell id="TR7LabUpoKKQOMJsEYJS-55" value="Serviços Entidade" style="rounded=0;whiteSpace=wrap;html=1;verticalAlign=top;" vertex="1" parent="1">
          <mxGeometry x="190" y="160" width="1020" height="350" as="geometry" />
        </mxCell>
        <mxCell id="TR7LabUpoKKQOMJsEYJS-54" value="Serviços Tarefa" style="rounded=0;whiteSpace=wrap;html=1;verticalAlign=top;" vertex="1" parent="1">
          <mxGeometry x="480" y="10" width="390" height="130" as="geometry" />
        </mxCell>
        <mxCell id="TR7LabUpoKKQOMJsEYJS-9" value="&amp;lt;&amp;lt;Solicitação&amp;gt;&amp;gt;" style="swimlane;fontStyle=0;childLayout=stackLayout;horizontal=1;startSize=26;fillColor=default;horizontalStack=0;resizeParent=1;resizeParentMax=0;resizeLast=0;collapsible=1;marginBottom=0;whiteSpace=wrap;html=1;" vertex="1" parent="1">
          <mxGeometry x="550" y="260" width="270" height="106" as="geometry" />
        </mxCell>
        <mxCell id="TR7LabUpoKKQOMJsEYJS-10" value="+&amp;nbsp;Cadastrar solicitação" style="text;strokeColor=none;fillColor=default;align=left;verticalAlign=top;spacingLeft=4;spacingRight=4;overflow=hidden;rotatable=0;points=[[0,0.5],[1,0.5]];portConstraint=eastwest;whiteSpace=wrap;html=1;" vertex="1" parent="TR7LabUpoKKQOMJsEYJS-9">
          <mxGeometry y="26" width="270" height="26" as="geometry" />
        </mxCell>
        <mxCell id="TR7LabUpoKKQOMJsEYJS-11" value="+&amp;nbsp;Consultar solicitação" style="text;strokeColor=none;fillColor=default;align=left;verticalAlign=top;spacingLeft=4;spacingRight=4;overflow=hidden;rotatable=0;points=[[0,0.5],[1,0.5]];portConstraint=eastwest;whiteSpace=wrap;html=1;" vertex="1" parent="TR7LabUpoKKQOMJsEYJS-9">
          <mxGeometry y="52" width="270" height="28" as="geometry" />
        </mxCell>
        <mxCell id="TR7LabUpoKKQOMJsEYJS-12" value="+&amp;nbsp;Exibir as solicitações pendentes" style="text;strokeColor=none;fillColor=default;align=left;verticalAlign=top;spacingLeft=4;spacingRight=4;overflow=hidden;rotatable=0;points=[[0,0.5],[1,0.5]];portConstraint=eastwest;whiteSpace=wrap;html=1;" vertex="1" parent="TR7LabUpoKKQOMJsEYJS-9">
          <mxGeometry y="80" width="270" height="26" as="geometry" />
        </mxCell>
        <mxCell id="TR7LabUpoKKQOMJsEYJS-16" value="&amp;lt;&amp;lt;Dieta&amp;gt;&amp;gt;" style="swimlane;fontStyle=0;childLayout=stackLayout;horizontal=1;startSize=26;fillColor=default;horizontalStack=0;resizeParent=1;resizeParentMax=0;resizeLast=0;collapsible=1;marginBottom=0;whiteSpace=wrap;html=1;" vertex="1" parent="1">
          <mxGeometry x="200" y="170" width="270" height="78" as="geometry" />
        </mxCell>
        <mxCell id="TR7LabUpoKKQOMJsEYJS-17" value="+&amp;nbsp;Inserir dieta" style="text;strokeColor=none;fillColor=default;align=left;verticalAlign=top;spacingLeft=4;spacingRight=4;overflow=hidden;rotatable=0;points=[[0,0.5],[1,0.5]];portConstraint=eastwest;whiteSpace=wrap;html=1;" vertex="1" parent="TR7LabUpoKKQOMJsEYJS-16">
          <mxGeometry y="26" width="270" height="26" as="geometry" />
        </mxCell>
        <mxCell id="TR7LabUpoKKQOMJsEYJS-19" value="+&amp;nbsp;Consultar dieta" style="text;strokeColor=none;fillColor=default;align=left;verticalAlign=top;spacingLeft=4;spacingRight=4;overflow=hidden;rotatable=0;points=[[0,0.5],[1,0.5]];portConstraint=eastwest;whiteSpace=wrap;html=1;" vertex="1" parent="TR7LabUpoKKQOMJsEYJS-16">
          <mxGeometry y="52" width="270" height="26" as="geometry" />
        </mxCell>
        <mxCell id="TR7LabUpoKKQOMJsEYJS-20" value="&amp;lt;&amp;lt;Plano de Exercícios&amp;gt;&amp;gt;" style="swimlane;fontStyle=0;childLayout=stackLayout;horizontal=1;startSize=26;fillColor=default;horizontalStack=0;resizeParent=1;resizeParentMax=0;resizeLast=0;collapsible=1;marginBottom=0;whiteSpace=wrap;html=1;" vertex="1" parent="1">
          <mxGeometry x="890" y="280" width="270" height="80" as="geometry" />
        </mxCell>
        <mxCell id="TR7LabUpoKKQOMJsEYJS-21" value="+&amp;nbsp;Inserir plano de exercícios" style="text;strokeColor=none;fillColor=default;align=left;verticalAlign=top;spacingLeft=4;spacingRight=4;overflow=hidden;rotatable=0;points=[[0,0.5],[1,0.5]];portConstraint=eastwest;whiteSpace=wrap;html=1;" vertex="1" parent="TR7LabUpoKKQOMJsEYJS-20">
          <mxGeometry y="26" width="270" height="26" as="geometry" />
        </mxCell>
        <mxCell id="TR7LabUpoKKQOMJsEYJS-22" value="+&amp;nbsp;Consultar plano de exercícios" style="text;strokeColor=none;fillColor=default;align=left;verticalAlign=top;spacingLeft=4;spacingRight=4;overflow=hidden;rotatable=0;points=[[0,0.5],[1,0.5]];portConstraint=eastwest;whiteSpace=wrap;html=1;" vertex="1" parent="TR7LabUpoKKQOMJsEYJS-20">
          <mxGeometry y="52" width="270" height="28" as="geometry" />
        </mxCell>
        <mxCell id="TR7LabUpoKKQOMJsEYJS-24" value="&amp;lt;&amp;lt;Consulta&amp;gt;&amp;gt;" style="swimlane;fontStyle=0;childLayout=stackLayout;horizontal=1;startSize=26;fillColor=default;horizontalStack=0;resizeParent=1;resizeParentMax=0;resizeLast=0;collapsible=1;marginBottom=0;whiteSpace=wrap;html=1;" vertex="1" parent="1">
          <mxGeometry x="200" y="280" width="270" height="80" as="geometry" />
        </mxCell>
        <mxCell id="TR7LabUpoKKQOMJsEYJS-25" value="+&amp;nbsp;Cadastrar consulta" style="text;strokeColor=none;fillColor=default;align=left;verticalAlign=top;spacingLeft=4;spacingRight=4;overflow=hidden;rotatable=0;points=[[0,0.5],[1,0.5]];portConstraint=eastwest;whiteSpace=wrap;html=1;" vertex="1" parent="TR7LabUpoKKQOMJsEYJS-24">
          <mxGeometry y="26" width="270" height="26" as="geometry" />
        </mxCell>
        <mxCell id="TR7LabUpoKKQOMJsEYJS-26" value="+&amp;nbsp;Obter consulta" style="text;strokeColor=none;fillColor=default;align=left;verticalAlign=top;spacingLeft=4;spacingRight=4;overflow=hidden;rotatable=0;points=[[0,0.5],[1,0.5]];portConstraint=eastwest;whiteSpace=wrap;html=1;" vertex="1" parent="TR7LabUpoKKQOMJsEYJS-24">
          <mxGeometry y="52" width="270" height="28" as="geometry" />
        </mxCell>
        <mxCell id="TR7LabUpoKKQOMJsEYJS-51" style="edgeStyle=orthogonalEdgeStyle;rounded=0;orthogonalLoop=1;jettySize=auto;html=1;" edge="1" parent="1" source="TR7LabUpoKKQOMJsEYJS-27" target="TR7LabUpoKKQOMJsEYJS-43">
          <mxGeometry relative="1" as="geometry">
            <Array as="points">
              <mxPoint x="335" y="610" />
              <mxPoint x="685" y="610" />
            </Array>
          </mxGeometry>
        </mxCell>
        <mxCell id="TR7LabUpoKKQOMJsEYJS-27" value="&amp;lt;&amp;lt;Aluno&amp;gt;&amp;gt;" style="swimlane;fontStyle=0;childLayout=stackLayout;horizontal=1;startSize=26;fillColor=default;horizontalStack=0;resizeParent=1;resizeParentMax=0;resizeLast=0;collapsible=1;marginBottom=0;whiteSpace=wrap;html=1;" vertex="1" parent="1">
          <mxGeometry x="200" y="398" width="270" height="80" as="geometry" />
        </mxCell>
        <mxCell id="TR7LabUpoKKQOMJsEYJS-28" value="+&amp;nbsp;Cadastrar aluno" style="text;strokeColor=none;fillColor=default;align=left;verticalAlign=top;spacingLeft=4;spacingRight=4;overflow=hidden;rotatable=0;points=[[0,0.5],[1,0.5]];portConstraint=eastwest;whiteSpace=wrap;html=1;" vertex="1" parent="TR7LabUpoKKQOMJsEYJS-27">
          <mxGeometry y="26" width="270" height="26" as="geometry" />
        </mxCell>
        <mxCell id="TR7LabUpoKKQOMJsEYJS-29" value="+&amp;nbsp;Consultar aluno" style="text;strokeColor=none;fillColor=default;align=left;verticalAlign=top;spacingLeft=4;spacingRight=4;overflow=hidden;rotatable=0;points=[[0,0.5],[1,0.5]];portConstraint=eastwest;whiteSpace=wrap;html=1;" vertex="1" parent="TR7LabUpoKKQOMJsEYJS-27">
          <mxGeometry y="52" width="270" height="28" as="geometry" />
        </mxCell>
        <mxCell id="TR7LabUpoKKQOMJsEYJS-52" style="edgeStyle=orthogonalEdgeStyle;rounded=0;orthogonalLoop=1;jettySize=auto;html=1;entryX=0.5;entryY=0;entryDx=0;entryDy=0;" edge="1" parent="1" source="TR7LabUpoKKQOMJsEYJS-30" target="TR7LabUpoKKQOMJsEYJS-43">
          <mxGeometry relative="1" as="geometry">
            <Array as="points">
              <mxPoint x="685" y="640" />
              <mxPoint x="685" y="640" />
            </Array>
          </mxGeometry>
        </mxCell>
        <mxCell id="TR7LabUpoKKQOMJsEYJS-30" value="&amp;lt;&amp;lt;Nutricionista&amp;gt;&amp;gt;" style="swimlane;fontStyle=0;childLayout=stackLayout;horizontal=1;startSize=26;fillColor=default;horizontalStack=0;resizeParent=1;resizeParentMax=0;resizeLast=0;collapsible=1;marginBottom=0;whiteSpace=wrap;html=1;" vertex="1" parent="1">
          <mxGeometry x="550" y="384" width="270" height="108" as="geometry" />
        </mxCell>
        <mxCell id="TR7LabUpoKKQOMJsEYJS-31" value="+&amp;nbsp;Cadastrar&amp;nbsp;nutricionista" style="text;strokeColor=none;fillColor=default;align=left;verticalAlign=top;spacingLeft=4;spacingRight=4;overflow=hidden;rotatable=0;points=[[0,0.5],[1,0.5]];portConstraint=eastwest;whiteSpace=wrap;html=1;" vertex="1" parent="TR7LabUpoKKQOMJsEYJS-30">
          <mxGeometry y="26" width="270" height="26" as="geometry" />
        </mxCell>
        <mxCell id="TR7LabUpoKKQOMJsEYJS-32" value="+&amp;nbsp;Consultar&amp;nbsp;nutricionista" style="text;strokeColor=none;fillColor=default;align=left;verticalAlign=top;spacingLeft=4;spacingRight=4;overflow=hidden;rotatable=0;points=[[0,0.5],[1,0.5]];portConstraint=eastwest;whiteSpace=wrap;html=1;" vertex="1" parent="TR7LabUpoKKQOMJsEYJS-30">
          <mxGeometry y="52" width="270" height="28" as="geometry" />
        </mxCell>
        <mxCell id="TR7LabUpoKKQOMJsEYJS-33" value="+&amp;nbsp;Consultar&amp;nbsp;datas disponíveis" style="text;strokeColor=none;fillColor=default;align=left;verticalAlign=top;spacingLeft=4;spacingRight=4;overflow=hidden;rotatable=0;points=[[0,0.5],[1,0.5]];portConstraint=eastwest;whiteSpace=wrap;html=1;" vertex="1" parent="TR7LabUpoKKQOMJsEYJS-30">
          <mxGeometry y="80" width="270" height="28" as="geometry" />
        </mxCell>
        <mxCell id="TR7LabUpoKKQOMJsEYJS-53" style="edgeStyle=orthogonalEdgeStyle;rounded=0;orthogonalLoop=1;jettySize=auto;html=1;entryX=0.5;entryY=0;entryDx=0;entryDy=0;" edge="1" parent="1" source="TR7LabUpoKKQOMJsEYJS-34" target="TR7LabUpoKKQOMJsEYJS-43">
          <mxGeometry relative="1" as="geometry">
            <Array as="points">
              <mxPoint x="1020" y="610" />
              <mxPoint x="685" y="610" />
            </Array>
          </mxGeometry>
        </mxCell>
        <mxCell id="TR7LabUpoKKQOMJsEYJS-34" value="&amp;lt;&amp;lt;Personal Trainer&amp;gt;&amp;gt;" style="swimlane;fontStyle=0;childLayout=stackLayout;horizontal=1;startSize=26;fillColor=default;horizontalStack=0;resizeParent=1;resizeParentMax=0;resizeLast=0;collapsible=1;marginBottom=0;whiteSpace=wrap;html=1;" vertex="1" parent="1">
          <mxGeometry x="890" y="384" width="270" height="108" as="geometry" />
        </mxCell>
        <mxCell id="TR7LabUpoKKQOMJsEYJS-35" value="+&amp;nbsp;Cadastrar&amp;nbsp;personal trainer" style="text;strokeColor=none;fillColor=default;align=left;verticalAlign=top;spacingLeft=4;spacingRight=4;overflow=hidden;rotatable=0;points=[[0,0.5],[1,0.5]];portConstraint=eastwest;whiteSpace=wrap;html=1;" vertex="1" parent="TR7LabUpoKKQOMJsEYJS-34">
          <mxGeometry y="26" width="270" height="26" as="geometry" />
        </mxCell>
        <mxCell id="TR7LabUpoKKQOMJsEYJS-36" value="+&amp;nbsp;Consultar&amp;nbsp;personal trainer" style="text;strokeColor=none;fillColor=default;align=left;verticalAlign=top;spacingLeft=4;spacingRight=4;overflow=hidden;rotatable=0;points=[[0,0.5],[1,0.5]];portConstraint=eastwest;whiteSpace=wrap;html=1;" vertex="1" parent="TR7LabUpoKKQOMJsEYJS-34">
          <mxGeometry y="52" width="270" height="28" as="geometry" />
        </mxCell>
        <mxCell id="TR7LabUpoKKQOMJsEYJS-37" value="+&amp;nbsp;Consultar&amp;nbsp;datas disponíveis" style="text;strokeColor=none;fillColor=default;align=left;verticalAlign=top;spacingLeft=4;spacingRight=4;overflow=hidden;rotatable=0;points=[[0,0.5],[1,0.5]];portConstraint=eastwest;whiteSpace=wrap;html=1;" vertex="1" parent="TR7LabUpoKKQOMJsEYJS-34">
          <mxGeometry y="80" width="270" height="28" as="geometry" />
        </mxCell>
        <mxCell id="TR7LabUpoKKQOMJsEYJS-50" style="edgeStyle=orthogonalEdgeStyle;rounded=0;orthogonalLoop=1;jettySize=auto;html=1;" edge="1" parent="1" source="TR7LabUpoKKQOMJsEYJS-38" target="TR7LabUpoKKQOMJsEYJS-16">
          <mxGeometry relative="1" as="geometry">
            <Array as="points">
              <mxPoint x="685" y="120" />
              <mxPoint x="335" y="120" />
            </Array>
          </mxGeometry>
        </mxCell>
        <mxCell id="TR7LabUpoKKQOMJsEYJS-38" value="&amp;lt;&amp;lt;Gerar compra de produtos&amp;gt;&amp;gt;" style="swimlane;fontStyle=0;childLayout=stackLayout;horizontal=1;startSize=26;fillColor=default;horizontalStack=0;resizeParent=1;resizeParentMax=0;resizeLast=0;collapsible=1;marginBottom=0;whiteSpace=wrap;html=1;" vertex="1" parent="1">
          <mxGeometry x="550" y="50" width="270" height="52" as="geometry" />
        </mxCell>
        <mxCell id="TR7LabUpoKKQOMJsEYJS-39" value="+&amp;nbsp;Redirecionar para o sistema do supermercado" style="text;strokeColor=none;fillColor=default;align=left;verticalAlign=top;spacingLeft=4;spacingRight=4;overflow=hidden;rotatable=0;points=[[0,0.5],[1,0.5]];portConstraint=eastwest;whiteSpace=wrap;html=1;" vertex="1" parent="TR7LabUpoKKQOMJsEYJS-38">
          <mxGeometry y="26" width="270" height="26" as="geometry" />
        </mxCell>
        <mxCell id="TR7LabUpoKKQOMJsEYJS-43" value="&amp;lt;&amp;lt;Validar informações&amp;gt;&amp;gt;" style="swimlane;fontStyle=0;childLayout=stackLayout;horizontal=1;startSize=26;fillColor=default;horizontalStack=0;resizeParent=1;resizeParentMax=0;resizeLast=0;collapsible=1;marginBottom=0;whiteSpace=wrap;html=1;" vertex="1" parent="1">
          <mxGeometry x="550" y="670" width="270" height="52" as="geometry" />
        </mxCell>
        <mxCell id="TR7LabUpoKKQOMJsEYJS-44" value="+&amp;nbsp;Validar as informações" style="text;strokeColor=none;fillColor=default;align=left;verticalAlign=top;spacingLeft=4;spacingRight=4;overflow=hidden;rotatable=0;points=[[0,0.5],[1,0.5]];portConstraint=eastwest;whiteSpace=wrap;html=1;" vertex="1" parent="TR7LabUpoKKQOMJsEYJS-43">
          <mxGeometry y="26" width="270" height="26" as="geometry" />
        </mxCell>
      </root>
    </mxGraphModel>
  </diagram>
</mxfile>
